<svg width="22" height="19" viewBox="0 0 22 19" fill="none" xmlns="http://www.w3.org/2000/svg">
<mask id="path-1-inside-1_1002_42" fill="white">
<path fill-rule="evenodd" clip-rule="evenodd" d="M1.66984 1.89996C-0.556815 4.12662 -0.556815 7.73675 1.66984 9.96341L10.0998 18.3934C10.5047 18.7982 11.161 18.7982 11.5659 18.3934L11.576 18.3832C11.6937 18.3328 11.804 18.2595 11.9 18.1634L20.33 9.73345C22.5567 7.50679 22.5567 3.89666 20.33 1.67C18.1033 -0.556658 14.4932 -0.556657 12.2666 1.67L10.8849 3.05162L9.73329 1.89996C7.50663 -0.326697 3.8965 -0.326697 1.66984 1.89996Z"/>
</mask>
<path fill-rule="evenodd" clip-rule="evenodd" d="M1.66984 1.89996C-0.556815 4.12662 -0.556815 7.73675 1.66984 9.96341L10.0998 18.3934C10.5047 18.7982 11.161 18.7982 11.5659 18.3934L11.576 18.3832C11.6937 18.3328 11.804 18.2595 11.9 18.1634L20.33 9.73345C22.5567 7.50679 22.5567 3.89666 20.33 1.67C18.1033 -0.556658 14.4932 -0.556657 12.2666 1.67L10.8849 3.05162L9.73329 1.89996C7.50663 -0.326697 3.8965 -0.326697 1.66984 1.89996Z" fill="#D9D9D9"/>
<path d="M11.5659 18.3934L13.032 19.8595L11.5659 18.3934ZM11.576 18.3832L10.7588 16.4777L10.3921 16.635L10.1099 16.9172L11.576 18.3832ZM11.9 18.1634L10.434 16.6973L10.434 16.6973L11.9 18.1634ZM20.33 9.73345L21.7961 11.1995L20.33 9.73345ZM12.2666 1.67L10.8005 0.20392L12.2666 1.67ZM10.8849 3.05162L9.41886 4.5177L10.8849 5.98378L12.351 4.5177L10.8849 3.05162ZM3.13592 8.49733C1.71896 7.08036 1.71896 4.78301 3.13592 3.36604L0.203762 0.433881C-2.83259 3.47023 -2.83259 8.39314 0.203763 11.4295L3.13592 8.49733ZM11.5659 16.9273L3.13592 8.49733L0.203763 11.4295L8.63373 19.8595L11.5659 16.9273ZM10.0998 16.9273C10.5047 16.5224 11.161 16.5224 11.5659 16.9273L8.63373 19.8595C9.84827 21.074 11.8174 21.074 13.032 19.8595L10.0998 16.9273ZM10.1099 16.9172L10.0998 16.9273L13.032 19.8595L13.0421 19.8493L10.1099 16.9172ZM10.434 16.6973C10.5273 16.6039 10.6383 16.5294 10.7588 16.4777L12.3933 20.2887C12.7491 20.1361 13.0806 19.915 13.3661 19.6295L10.434 16.6973ZM18.8639 8.26737L10.434 16.6973L13.3661 19.6295L21.7961 11.1995L18.8639 8.26737ZM18.8639 3.13608C20.2809 4.55305 20.2809 6.8504 18.8639 8.26737L21.7961 11.1995C24.8324 8.16317 24.8324 3.24027 21.7961 0.20392L18.8639 3.13608ZM13.7326 3.13608C15.1496 1.71912 17.447 1.71912 18.8639 3.13608L21.7961 0.20392C18.7597 -2.83243 13.8368 -2.83243 10.8005 0.20392L13.7326 3.13608ZM12.351 4.5177L13.7326 3.13608L10.8005 0.20392L9.41886 1.58554L12.351 4.5177ZM8.26721 3.36604L9.41886 4.5177L12.351 1.58554L11.1994 0.433881L8.26721 3.36604ZM3.13592 3.36604C4.55289 1.94908 6.85024 1.94908 8.26721 3.36604L11.1994 0.433881C8.16302 -2.60247 3.24012 -2.60247 0.203762 0.433881L3.13592 3.36604Z" fill="#D9D9D9" mask="url(#path-1-inside-1_1002_42)"/>
</svg>
